{
  "accessors": [
    {
      "bufferView": 2,
      "componentType": 5126,
      "count": 65532,
      "max": [
        0.16741099953651428,
        0.2768639922142029,
        1.7587770223617554
      ],
      "min": [
        -0.20787900686264038,
        -0.3139129877090454,
        1.5090099573135376
      ],
      "type": "VEC3"
    },
    {
      "bufferView": 2,
      "byteOffset": 786384,
      "componentType": 5126,
      "count": 65532,
      "max": [
        0.9999902248382568,
        0.9998911023139954,
        0.9999952912330627
      ],
      "min": [
        -0.9999536871910095,
        -0.9999510049819946,
        -0.9999417662620544
      ],
      "type": "VEC3"
    },
    {
      "bufferView": 1,
      "componentType": 5126,
      "count": 65532,
      "max": [
        0.11296200007200241,
        0.9993100166320801
      ],
      "min": [
        0.0006140000186860561,
        0.0006709999870508909
      ],
      "type": "VEC2"
    },
    {
      "bufferView": 0,
      "componentType": 5125,
      "count": 319914,
      "type": "SCALAR"
    },
    {
      "bufferView": 2,
      "byteOffset": 1572768,
      "componentType": 5126,
      "count": 30641,
      "max": [
        0.16741099953651428,
        0.2768639922142029,
        1.7582670450210571
      ],
      "min": [
        -0.20777900516986847,
        -0.3139129877090454,
        1.5092389583587646
      ],
      "type": "VEC3"
    },
    {
      "bufferView": 2,
      "byteOffset": 1940460,
      "componentType": 5126,
      "count": 30641,
      "max": [
        0.9999637007713318,
        0.9998840689659119,
        0.9999701976776123
      ],
      "min": [
        -0.9999730587005615,
        -0.9961106777191162,
        -0.9999450445175171
      ],
      "type": "VEC3"
    },
    {
      "bufferView": 1,
      "byteOffset": 524256,
      "componentType": 5126,
      "count": 30641,
      "max": [
        0.12484899908304214,
        0.9993789792060852
      ],
      "min": [
        0.000623999978415668,
        0.0025740000419318676
      ],
      "type": "VEC2"
    },
    {
      "bufferView": 0,
      "byteOffset": 1279656,
      "componentType": 5125,
      "count": 157764,
      "type": "SCALAR"
    }
  ],
  "asset": {
    "extras": {
      "author": "Digital_Geoscience_Global (https://sketchfab.com/Digital_Geoscience_Global)",
      "license": "CC-BY-4.0 (http://creativecommons.org/licenses/by/4.0/)",
      "source": "https://sketchfab.com/3d-models/sandstone-with-pyrite-ea7f0ba19953475ea4478c36ac363ecd",
      "title": "Sandstone with Pyrite"
    },
    "generator": "Sketchfab-14.64.0",
    "version": "2.0"
  },
  "bufferViews": [
    {
      "buffer": 0,
      "byteLength": 1910712,
      "name": "floatBufferViews",
      "target": 34963
    },
    {
      "buffer": 0,
      "byteLength": 769384,
      "byteOffset": 1910712,
      "byteStride": 8,
      "name": "floatBufferViews",
      "target": 34962
    },
    {
      "buffer": 0,
      "byteLength": 2308152,
      "byteOffset": 2680096,
      "byteStride": 12,
      "name": "floatBufferViews",
      "target": 34962
    }
  ],
  "buffers": [
    {
      "byteLength": 4988248,
      "uri": "scene.bin"
    }
  ],
  "extensionsUsed": [
    "KHR_materials_unlit"
  ],
  "images": [
    {
      "uri": "textures/material_0_baseColor.png"
    }
  ],
  "materials": [
    {
      "doubleSided": true,
      "extensions": {
        "KHR_materials_unlit": {}
      },
      "name": "material_0",
      "pbrMetallicRoughness": {
        "baseColorTexture": {
          "index": 0
        },
        "metallicFactor": 0.0
      }
    }
  ],
  "meshes": [
    {
      "name": "Object_0",
      "primitives": [
        {
          "attributes": {
            "NORMAL": 1,
            "POSITION": 0,
            "TEXCOORD_0": 2
          },
          "indices": 3,
          "material": 0,
          "mode": 4
        }
      ]
    },
    {
      "name": "Object_1",
      "primitives": [
        {
          "attributes": {
            "NORMAL": 5,
            "POSITION": 4,
            "TEXCOORD_0": 6
          },
          "indices": 7,
          "material": 0,
          "mode": 4
        }
      ]
    }
  ],
  "nodes": [
    {
      "children": [
        1
      ],
      "matrix": [
        1.0,
        0.0,
        0.0,
        0.0,
        0.0,
        2.220446049250313e-16,
        -1.0,
        0.0,
        0.0,
        1.0,
        2.220446049250313e-16,
        0.0,
        0.0,
        0.0,
        0.0,
        1.0
      ],
      "name": "Sketchfab_model"
    },
    {
      "children": [
        2,
        3
      ],
      "name": "Geode"
    },
    {
      "mesh": 0,
      "name": "Object_2"
    },
    {
      "mesh": 1,
      "name": "Object_3"
    }
  ],
  "samplers": [
    {
      "magFilter": 9729,
      "minFilter": 9987,
      "wrapS": 33071,
      "wrapT": 33071
    }
  ],
  "scene": 0,
  "scenes": [
    {
      "name": "Sketchfab_Scene",
      "nodes": [
        0
      ]
    }
  ],
  "textures": [
    {
      "sampler": 0,
      "source": 0
    }
  ]
}
